<mxfile host="app.diagrams.net" modified="2023-04-22T08:21:14.286Z" agent="Mozilla/5.0 (Windows NT 10.0; Win64; x64) AppleWebKit/537.36 (KHTML, like Gecko) Chrome/112.0.0.0 Safari/537.36 Edg/112.0.1722.48" etag="SCPeAxBEnlTcf0etEnow" version="21.2.1" type="device">
  <diagram name="Page-1" id="e56a1550-8fbb-45ad-956c-1786394a9013">
    <mxGraphModel dx="1664" dy="723" grid="1" gridSize="10" guides="1" tooltips="1" connect="1" arrows="1" fold="1" page="1" pageScale="1" pageWidth="1100" pageHeight="850" background="none" math="0" shadow="0">
      <root>
        <mxCell id="0" />
        <mxCell id="1" parent="0" />
        <mxCell id="5uSCDXz5iFFyjT3ydSWA-192" style="edgeStyle=orthogonalEdgeStyle;rounded=0;orthogonalLoop=1;jettySize=auto;html=1;" edge="1" parent="1" source="5uSCDXz5iFFyjT3ydSWA-190" target="5uSCDXz5iFFyjT3ydSWA-184">
          <mxGeometry relative="1" as="geometry" />
        </mxCell>
        <mxCell id="5uSCDXz5iFFyjT3ydSWA-189" style="edgeStyle=orthogonalEdgeStyle;rounded=0;orthogonalLoop=1;jettySize=auto;html=1;exitX=0.5;exitY=1;exitDx=0;exitDy=0;" edge="1" parent="1" source="5uSCDXz5iFFyjT3ydSWA-85" target="5uSCDXz5iFFyjT3ydSWA-190">
          <mxGeometry relative="1" as="geometry">
            <mxPoint x="410" y="560" as="targetPoint" />
            <Array as="points">
              <mxPoint x="505" y="572" />
            </Array>
          </mxGeometry>
        </mxCell>
        <mxCell id="5uSCDXz5iFFyjT3ydSWA-60" value="" style="line;strokeWidth=1;html=1;rotation=-90;" vertex="1" parent="1">
          <mxGeometry x="394.69" y="130.64" width="30.63" height="10" as="geometry" />
        </mxCell>
        <mxCell id="5uSCDXz5iFFyjT3ydSWA-61" value="" style="line;strokeWidth=1;html=1;" vertex="1" parent="1">
          <mxGeometry x="470" y="90.32" width="90" height="10" as="geometry" />
        </mxCell>
        <mxCell id="5uSCDXz5iFFyjT3ydSWA-62" value="" style="line;strokeWidth=1;html=1;rotation=-90;" vertex="1" parent="1">
          <mxGeometry x="394.70000000000005" y="260.32" width="30.63" height="10" as="geometry" />
        </mxCell>
        <mxCell id="5uSCDXz5iFFyjT3ydSWA-63" value="" style="line;strokeWidth=1;html=1;" vertex="1" parent="1">
          <mxGeometry x="315" y="443.64" width="335" height="10" as="geometry" />
        </mxCell>
        <mxCell id="5uSCDXz5iFFyjT3ydSWA-64" value="" style="shape=partialRectangle;whiteSpace=wrap;html=1;top=0;left=0;fillColor=none;" vertex="1" parent="1">
          <mxGeometry x="732" y="255" width="98" height="193.32" as="geometry" />
        </mxCell>
        <mxCell id="5uSCDXz5iFFyjT3ydSWA-65" value="&lt;h1&gt;&lt;b&gt;PERSON&lt;/b&gt;&lt;/h1&gt;" style="rounded=1;arcSize=10;whiteSpace=wrap;html=1;align=center;labelBackgroundColor=none;fillColor=#EEEEEE;strokeColor=#FFFFFF;fontColor=#1A1A1A;" vertex="1" parent="1">
          <mxGeometry x="350" y="70.32" width="120" height="50" as="geometry" />
        </mxCell>
        <mxCell id="5uSCDXz5iFFyjT3ydSWA-146" style="edgeStyle=orthogonalEdgeStyle;rounded=0;orthogonalLoop=1;jettySize=auto;html=1;entryX=0;entryY=1;entryDx=0;entryDy=0;" edge="1" parent="1" source="5uSCDXz5iFFyjT3ydSWA-66" target="5uSCDXz5iFFyjT3ydSWA-145">
          <mxGeometry relative="1" as="geometry">
            <Array as="points">
              <mxPoint x="520" y="188" />
              <mxPoint x="541" y="188" />
            </Array>
          </mxGeometry>
        </mxCell>
        <mxCell id="5uSCDXz5iFFyjT3ydSWA-66" value="&lt;b&gt;Student&lt;/b&gt;" style="rounded=1;arcSize=10;whiteSpace=wrap;html=1;align=center;labelBackgroundColor=none;fillColor=#EEEEEE;strokeColor=#FFFFFF;fontColor=#1A1A1A;" vertex="1" parent="1">
          <mxGeometry x="470" y="210.32" width="70" height="40" as="geometry" />
        </mxCell>
        <mxCell id="5uSCDXz5iFFyjT3ydSWA-67" value="&lt;b&gt;Staff&lt;/b&gt;" style="rounded=1;arcSize=10;whiteSpace=wrap;html=1;align=center;labelBackgroundColor=none;fillColor=#EEEEEE;strokeColor=#FFFFFF;fontColor=#1A1A1A;" vertex="1" parent="1">
          <mxGeometry x="375" y="210.32" width="70" height="40" as="geometry" />
        </mxCell>
        <mxCell id="5uSCDXz5iFFyjT3ydSWA-68" value="&lt;b&gt;System&lt;br&gt;User&lt;/b&gt;" style="rounded=1;arcSize=10;whiteSpace=wrap;html=1;align=center;labelBackgroundColor=none;fillColor=#EEEEEE;strokeColor=#FFFFFF;fontColor=#1A1A1A;" vertex="1" parent="1">
          <mxGeometry x="280" y="210.32" width="70" height="40" as="geometry" />
        </mxCell>
        <mxCell id="5uSCDXz5iFFyjT3ydSWA-69" value="D" style="ellipse;whiteSpace=wrap;html=1;" vertex="1" parent="1">
          <mxGeometry x="400" y="151.32" width="20" height="20" as="geometry" />
        </mxCell>
        <mxCell id="5uSCDXz5iFFyjT3ydSWA-70" value="" style="edgeStyle=elbowEdgeStyle;elbow=vertical;endArrow=classic;html=1;curved=0;rounded=0;endSize=8;startSize=8;" edge="1" parent="1">
          <mxGeometry width="50" height="50" relative="1" as="geometry">
            <mxPoint x="410" y="172.32" as="sourcePoint" />
            <mxPoint x="505" y="211.32" as="targetPoint" />
          </mxGeometry>
        </mxCell>
        <mxCell id="5uSCDXz5iFFyjT3ydSWA-71" value="" style="edgeStyle=elbowEdgeStyle;elbow=vertical;endArrow=classic;html=1;curved=0;rounded=0;endSize=8;startSize=8;exitX=0.5;exitY=1;exitDx=0;exitDy=0;entryX=0.5;entryY=0;entryDx=0;entryDy=0;" edge="1" parent="1">
          <mxGeometry width="50" height="50" relative="1" as="geometry">
            <mxPoint x="410" y="171.32" as="sourcePoint" />
            <mxPoint x="410" y="210.32" as="targetPoint" />
          </mxGeometry>
        </mxCell>
        <mxCell id="5uSCDXz5iFFyjT3ydSWA-72" value="" style="edgeStyle=elbowEdgeStyle;elbow=vertical;endArrow=classic;html=1;curved=0;rounded=0;endSize=8;startSize=8;" edge="1" parent="1">
          <mxGeometry width="50" height="50" relative="1" as="geometry">
            <mxPoint x="410" y="171.32" as="sourcePoint" />
            <mxPoint x="314.99999999999994" y="211.32" as="targetPoint" />
          </mxGeometry>
        </mxCell>
        <mxCell id="5uSCDXz5iFFyjT3ydSWA-73" value="&lt;b&gt;Saving&lt;/b&gt;" style="shape=rhombus;perimeter=rhombusPerimeter;whiteSpace=wrap;html=1;align=center;" vertex="1" parent="1">
          <mxGeometry x="560" y="72.64" width="90" height="45" as="geometry" />
        </mxCell>
        <mxCell id="5uSCDXz5iFFyjT3ydSWA-74" value="&lt;h1&gt;&lt;b&gt;Auth.&lt;/b&gt;&lt;/h1&gt;" style="rounded=1;arcSize=10;whiteSpace=wrap;html=1;align=center;labelBackgroundColor=none;fillColor=#EEEEEE;strokeColor=#FFFFFF;fontColor=#1A1A1A;" vertex="1" parent="1">
          <mxGeometry x="740" y="25.14" width="120" height="50" as="geometry" />
        </mxCell>
        <mxCell id="5uSCDXz5iFFyjT3ydSWA-181" style="edgeStyle=orthogonalEdgeStyle;rounded=0;orthogonalLoop=1;jettySize=auto;html=1;exitX=1;exitY=0.5;exitDx=0;exitDy=0;exitPerimeter=0;" edge="1" parent="1" source="5uSCDXz5iFFyjT3ydSWA-75" target="5uSCDXz5iFFyjT3ydSWA-74">
          <mxGeometry relative="1" as="geometry" />
        </mxCell>
        <mxCell id="5uSCDXz5iFFyjT3ydSWA-75" value="" style="line;strokeWidth=1;html=1;" vertex="1" parent="1">
          <mxGeometry x="650" y="90.14" width="90" height="10" as="geometry" />
        </mxCell>
        <mxCell id="5uSCDXz5iFFyjT3ydSWA-76" style="rounded=0;orthogonalLoop=1;jettySize=auto;html=1;entryX=1;entryY=0.5;entryDx=0;entryDy=0;fontFamily=Helvetica;fontSize=12;fontColor=default;" edge="1" parent="1" source="5uSCDXz5iFFyjT3ydSWA-77" target="5uSCDXz5iFFyjT3ydSWA-74">
          <mxGeometry relative="1" as="geometry" />
        </mxCell>
        <mxCell id="5uSCDXz5iFFyjT3ydSWA-77" value="&lt;b&gt;Password&lt;/b&gt;" style="ellipse;whiteSpace=wrap;html=1;align=center;" vertex="1" parent="1">
          <mxGeometry x="892.5" y="78.57" width="70" height="25" as="geometry" />
        </mxCell>
        <mxCell id="5uSCDXz5iFFyjT3ydSWA-78" value="D" style="ellipse;whiteSpace=wrap;html=1;" vertex="1" parent="1">
          <mxGeometry x="400.01" y="281" width="20" height="20" as="geometry" />
        </mxCell>
        <mxCell id="5uSCDXz5iFFyjT3ydSWA-79" value="" style="edgeStyle=elbowEdgeStyle;elbow=vertical;endArrow=classic;html=1;curved=0;rounded=0;endSize=8;startSize=8;" edge="1" parent="1">
          <mxGeometry width="50" height="50" relative="1" as="geometry">
            <mxPoint x="410.01" y="301" as="sourcePoint" />
            <mxPoint x="505" y="350.32" as="targetPoint" />
            <Array as="points">
              <mxPoint x="460" y="330.32" />
            </Array>
          </mxGeometry>
        </mxCell>
        <mxCell id="5uSCDXz5iFFyjT3ydSWA-80" value="" style="edgeStyle=elbowEdgeStyle;elbow=vertical;endArrow=classic;html=1;curved=0;rounded=0;endSize=8;startSize=8;" edge="1" parent="1">
          <mxGeometry width="50" height="50" relative="1" as="geometry">
            <mxPoint x="410.01" y="301" as="sourcePoint" />
            <mxPoint x="315" y="350.32" as="targetPoint" />
            <Array as="points">
              <mxPoint x="360" y="330.32" />
            </Array>
          </mxGeometry>
        </mxCell>
        <mxCell id="5uSCDXz5iFFyjT3ydSWA-81" value="&lt;b&gt;SSN&lt;/b&gt;" style="ellipse;whiteSpace=wrap;html=1;align=center;fontStyle=4;" vertex="1" parent="1">
          <mxGeometry x="385.02" y="10" width="50" height="25" as="geometry" />
        </mxCell>
        <mxCell id="5uSCDXz5iFFyjT3ydSWA-82" style="rounded=0;orthogonalLoop=1;jettySize=auto;html=1;entryX=1;entryY=0.5;entryDx=0;entryDy=0;fontFamily=Helvetica;fontSize=12;fontColor=default;" edge="1" parent="1" source="5uSCDXz5iFFyjT3ydSWA-83" target="5uSCDXz5iFFyjT3ydSWA-74">
          <mxGeometry relative="1" as="geometry" />
        </mxCell>
        <mxCell id="5uSCDXz5iFFyjT3ydSWA-83" value="&lt;b&gt;Username&lt;/b&gt;" style="ellipse;whiteSpace=wrap;html=1;align=center;fontStyle=4;" vertex="1" parent="1">
          <mxGeometry x="890" y="30.82" width="75" height="25" as="geometry" />
        </mxCell>
        <mxCell id="5uSCDXz5iFFyjT3ydSWA-204" style="edgeStyle=orthogonalEdgeStyle;rounded=0;orthogonalLoop=1;jettySize=auto;html=1;exitX=0.25;exitY=1;exitDx=0;exitDy=0;entryX=0;entryY=0;entryDx=0;entryDy=0;" edge="1" parent="1" source="5uSCDXz5iFFyjT3ydSWA-84" target="5uSCDXz5iFFyjT3ydSWA-190">
          <mxGeometry relative="1" as="geometry">
            <Array as="points">
              <mxPoint x="295" y="390" />
            </Array>
          </mxGeometry>
        </mxCell>
        <mxCell id="5uSCDXz5iFFyjT3ydSWA-84" value="&lt;b&gt;Teaching&amp;nbsp;&lt;br&gt;Assistant&lt;/b&gt;" style="rounded=1;arcSize=10;whiteSpace=wrap;html=1;align=center;labelBackgroundColor=none;fillColor=#EEEEEE;strokeColor=#FFFFFF;fontColor=#1A1A1A;" vertex="1" parent="1">
          <mxGeometry x="280" y="350.32" width="70" height="40" as="geometry" />
        </mxCell>
        <mxCell id="5uSCDXz5iFFyjT3ydSWA-85" value="&lt;b&gt;Doctor&lt;/b&gt;" style="rounded=1;arcSize=10;whiteSpace=wrap;html=1;align=center;labelBackgroundColor=none;fillColor=#EEEEEE;strokeColor=#FFFFFF;fontColor=#1A1A1A;" vertex="1" parent="1">
          <mxGeometry x="470" y="350.32" width="70" height="40" as="geometry" />
        </mxCell>
        <mxCell id="5uSCDXz5iFFyjT3ydSWA-86" value="&lt;b&gt;Name&lt;/b&gt;" style="ellipse;whiteSpace=wrap;html=1;align=center;" vertex="1" parent="1">
          <mxGeometry x="526" y="9.999999999999986" width="70" height="25" as="geometry" />
        </mxCell>
        <mxCell id="5uSCDXz5iFFyjT3ydSWA-87" value="&lt;b&gt;Nationality&lt;/b&gt;" style="ellipse;whiteSpace=wrap;html=1;align=center;" vertex="1" parent="1">
          <mxGeometry x="445" y="9.999999999999993" width="70" height="25" as="geometry" />
        </mxCell>
        <mxCell id="5uSCDXz5iFFyjT3ydSWA-88" value="&lt;b&gt;Gender&lt;/b&gt;" style="ellipse;whiteSpace=wrap;html=1;align=center;" vertex="1" parent="1">
          <mxGeometry x="308" y="9.999999999999993" width="70" height="25" as="geometry" />
        </mxCell>
        <mxCell id="5uSCDXz5iFFyjT3ydSWA-89" value="&lt;b&gt;Bdate&lt;/b&gt;" style="ellipse;whiteSpace=wrap;html=1;align=center;" vertex="1" parent="1">
          <mxGeometry x="233" y="10" width="70" height="25" as="geometry" />
        </mxCell>
        <mxCell id="5uSCDXz5iFFyjT3ydSWA-90" value="" style="group" vertex="1" connectable="0" parent="1">
          <mxGeometry x="410" y="35" width="150" height="36" as="geometry" />
        </mxCell>
        <mxCell id="5uSCDXz5iFFyjT3ydSWA-91" value="" style="shape=partialRectangle;whiteSpace=wrap;html=1;top=0;left=0;fillColor=none;" vertex="1" parent="5uSCDXz5iFFyjT3ydSWA-90">
          <mxGeometry width="150" height="17.85" as="geometry" />
        </mxCell>
        <mxCell id="5uSCDXz5iFFyjT3ydSWA-92" value="" style="shape=partialRectangle;whiteSpace=wrap;html=1;bottom=0;right=0;fillColor=none;" vertex="1" parent="5uSCDXz5iFFyjT3ydSWA-90">
          <mxGeometry y="17.856" width="135.352" height="18.144" as="geometry" />
        </mxCell>
        <mxCell id="5uSCDXz5iFFyjT3ydSWA-93" value="" style="group" vertex="1" connectable="0" parent="5uSCDXz5iFFyjT3ydSWA-90">
          <mxGeometry width="70" height="36" as="geometry" />
        </mxCell>
        <mxCell id="5uSCDXz5iFFyjT3ydSWA-94" value="" style="shape=partialRectangle;whiteSpace=wrap;html=1;top=0;left=0;fillColor=none;" vertex="1" parent="5uSCDXz5iFFyjT3ydSWA-93">
          <mxGeometry width="70" height="17.854447439353102" as="geometry" />
        </mxCell>
        <mxCell id="5uSCDXz5iFFyjT3ydSWA-95" value="" style="shape=partialRectangle;whiteSpace=wrap;html=1;bottom=0;right=0;fillColor=none;" vertex="1" parent="5uSCDXz5iFFyjT3ydSWA-93">
          <mxGeometry y="17.856" width="67.676" height="18.144" as="geometry" />
        </mxCell>
        <mxCell id="5uSCDXz5iFFyjT3ydSWA-96" value="" style="endArrow=none;html=1;rounded=0;exitX=0.5;exitY=0;exitDx=0;exitDy=0;" edge="1" parent="1" source="5uSCDXz5iFFyjT3ydSWA-65">
          <mxGeometry width="50" height="50" relative="1" as="geometry">
            <mxPoint x="360" y="85" as="sourcePoint" />
            <mxPoint x="410" y="35" as="targetPoint" />
          </mxGeometry>
        </mxCell>
        <mxCell id="5uSCDXz5iFFyjT3ydSWA-97" value="" style="group" vertex="1" connectable="0" parent="1">
          <mxGeometry x="345" y="35" width="65" height="30" as="geometry" />
        </mxCell>
        <mxCell id="5uSCDXz5iFFyjT3ydSWA-98" value="" style="shape=partialRectangle;whiteSpace=wrap;html=1;top=0;left=1;right=0;fillColor=none;" vertex="1" parent="5uSCDXz5iFFyjT3ydSWA-97">
          <mxGeometry width="65" height="16.64" as="geometry" />
        </mxCell>
        <mxCell id="5uSCDXz5iFFyjT3ydSWA-99" value="" style="endArrow=none;html=1;rounded=0;fontFamily=Helvetica;fontSize=12;fontColor=default;entryX=1;entryY=1;entryDx=0;entryDy=0;" edge="1" parent="5uSCDXz5iFFyjT3ydSWA-97" target="5uSCDXz5iFFyjT3ydSWA-98">
          <mxGeometry width="50" height="50" relative="1" as="geometry">
            <mxPoint x="65" y="30" as="sourcePoint" />
            <mxPoint x="91" y="30" as="targetPoint" />
          </mxGeometry>
        </mxCell>
        <mxCell id="5uSCDXz5iFFyjT3ydSWA-100" value="" style="shape=partialRectangle;whiteSpace=wrap;html=1;top=0;left=1;right=0;fillColor=none;" vertex="1" parent="1">
          <mxGeometry x="270" y="35" width="80" height="16.64" as="geometry" />
        </mxCell>
        <mxCell id="5uSCDXz5iFFyjT3ydSWA-180" style="edgeStyle=orthogonalEdgeStyle;rounded=0;orthogonalLoop=1;jettySize=auto;html=1;exitX=1;exitY=1;exitDx=0;exitDy=0;" edge="1" parent="1" source="5uSCDXz5iFFyjT3ydSWA-101" target="5uSCDXz5iFFyjT3ydSWA-155">
          <mxGeometry relative="1" as="geometry">
            <Array as="points">
              <mxPoint x="860" y="285" />
              <mxPoint x="850" y="285" />
              <mxPoint x="850" y="360" />
              <mxPoint x="930" y="360" />
            </Array>
          </mxGeometry>
        </mxCell>
        <mxCell id="5uSCDXz5iFFyjT3ydSWA-101" value="&lt;h1&gt;&lt;b&gt;Course&lt;/b&gt;&lt;/h1&gt;" style="rounded=1;arcSize=10;whiteSpace=wrap;html=1;align=center;labelBackgroundColor=none;fillColor=#EEEEEE;strokeColor=#FFFFFF;fontColor=#1A1A1A;" vertex="1" parent="1">
          <mxGeometry x="740" y="240.32" width="120" height="50" as="geometry" />
        </mxCell>
        <mxCell id="5uSCDXz5iFFyjT3ydSWA-102" value="" style="rounded=0;orthogonalLoop=1;jettySize=auto;html=1;fontFamily=Helvetica;fontSize=12;fontColor=default;entryX=1;entryY=0.5;entryDx=0;entryDy=0;" edge="1" parent="1" source="5uSCDXz5iFFyjT3ydSWA-103" target="5uSCDXz5iFFyjT3ydSWA-101">
          <mxGeometry relative="1" as="geometry">
            <mxPoint x="860" y="306.1661538461538" as="targetPoint" />
          </mxGeometry>
        </mxCell>
        <mxCell id="5uSCDXz5iFFyjT3ydSWA-103" value="&lt;b&gt;CrsName&lt;/b&gt;" style="ellipse;whiteSpace=wrap;html=1;align=center;" vertex="1" parent="1">
          <mxGeometry x="895" y="252.5" width="70" height="25" as="geometry" />
        </mxCell>
        <mxCell id="5uSCDXz5iFFyjT3ydSWA-104" value="" style="rounded=0;orthogonalLoop=1;jettySize=auto;html=1;fontFamily=Helvetica;fontSize=12;fontColor=default;entryX=1;entryY=0.25;entryDx=0;entryDy=0;" edge="1" parent="1" source="5uSCDXz5iFFyjT3ydSWA-105" target="5uSCDXz5iFFyjT3ydSWA-101">
          <mxGeometry relative="1" as="geometry">
            <mxPoint x="860" y="278.1599999999999" as="targetPoint" />
          </mxGeometry>
        </mxCell>
        <mxCell id="5uSCDXz5iFFyjT3ydSWA-105" value="&lt;b&gt;CrsCode&lt;/b&gt;" style="ellipse;whiteSpace=wrap;html=1;align=center;fontStyle=4;" vertex="1" parent="1">
          <mxGeometry x="890" y="210.32" width="75" height="25" as="geometry" />
        </mxCell>
        <mxCell id="5uSCDXz5iFFyjT3ydSWA-106" value="&lt;b&gt;Enroll&lt;/b&gt;" style="shape=rhombus;perimeter=rhombusPerimeter;whiteSpace=wrap;html=1;align=center;" vertex="1" parent="1">
          <mxGeometry x="560" y="245.32" width="90" height="45" as="geometry" />
        </mxCell>
        <mxCell id="5uSCDXz5iFFyjT3ydSWA-107" value="" style="line;strokeWidth=2;html=1;" vertex="1" parent="1">
          <mxGeometry x="650" y="262.82" width="90" height="10" as="geometry" />
        </mxCell>
        <mxCell id="5uSCDXz5iFFyjT3ydSWA-108" value="" style="shape=partialRectangle;whiteSpace=wrap;html=1;top=0;left=1;right=0;fillColor=none;" vertex="1" parent="1">
          <mxGeometry x="503" y="250" width="70" height="25" as="geometry" />
        </mxCell>
        <mxCell id="5uSCDXz5iFFyjT3ydSWA-109" value="&lt;b&gt;DInstruct&lt;/b&gt;" style="shape=rhombus;perimeter=rhombusPerimeter;whiteSpace=wrap;html=1;align=center;" vertex="1" parent="1">
          <mxGeometry x="644" y="342.82" width="90" height="45" as="geometry" />
        </mxCell>
        <mxCell id="5uSCDXz5iFFyjT3ydSWA-110" value="" style="line;strokeWidth=1;html=1;" vertex="1" parent="1">
          <mxGeometry x="540" y="360.32" width="106" height="10" as="geometry" />
        </mxCell>
        <mxCell id="5uSCDXz5iFFyjT3ydSWA-111" value="" style="shape=partialRectangle;whiteSpace=wrap;html=1;top=0;left=0;fillColor=none;" vertex="1" parent="1">
          <mxGeometry x="732" y="290" width="78" height="75" as="geometry" />
        </mxCell>
        <mxCell id="5uSCDXz5iFFyjT3ydSWA-112" value="&lt;b&gt;M&lt;/b&gt;" style="text;html=1;align=center;verticalAlign=middle;resizable=0;points=[];autosize=1;strokeColor=none;fillColor=none;fontSize=12;fontFamily=Helvetica;fontColor=default;" vertex="1" parent="1">
          <mxGeometry x="536" y="340.32" width="30" height="30" as="geometry" />
        </mxCell>
        <mxCell id="5uSCDXz5iFFyjT3ydSWA-113" value="&lt;b&gt;N&lt;/b&gt;" style="text;html=1;align=center;verticalAlign=middle;resizable=0;points=[];autosize=1;strokeColor=none;fillColor=none;fontSize=12;fontFamily=Helvetica;fontColor=default;" vertex="1" parent="1">
          <mxGeometry x="785" y="287" width="30" height="30" as="geometry" />
        </mxCell>
        <mxCell id="5uSCDXz5iFFyjT3ydSWA-114" value="&lt;b&gt;N&lt;/b&gt;" style="text;html=1;align=center;verticalAlign=middle;resizable=0;points=[];autosize=1;strokeColor=none;fillColor=none;fontSize=12;fontFamily=Helvetica;fontColor=default;" vertex="1" parent="1">
          <mxGeometry x="710" y="242.82" width="30" height="30" as="geometry" />
        </mxCell>
        <mxCell id="5uSCDXz5iFFyjT3ydSWA-115" value="&lt;b&gt;M&lt;/b&gt;" style="text;html=1;align=center;verticalAlign=middle;resizable=0;points=[];autosize=1;strokeColor=none;fillColor=none;fontSize=12;fontFamily=Helvetica;fontColor=default;" vertex="1" parent="1">
          <mxGeometry x="500" y="247.5" width="30" height="30" as="geometry" />
        </mxCell>
        <mxCell id="5uSCDXz5iFFyjT3ydSWA-116" value="&lt;b&gt;TAInstruct&lt;/b&gt;" style="shape=rhombus;perimeter=rhombusPerimeter;whiteSpace=wrap;html=1;align=center;" vertex="1" parent="1">
          <mxGeometry x="644" y="426.14" width="90" height="45" as="geometry" />
        </mxCell>
        <mxCell id="5uSCDXz5iFFyjT3ydSWA-117" value="&lt;b&gt;N&lt;/b&gt;" style="text;html=1;align=center;verticalAlign=middle;resizable=0;points=[];autosize=1;strokeColor=none;fillColor=none;fontSize=12;fontFamily=Helvetica;fontColor=default;" vertex="1" parent="1">
          <mxGeometry x="808" y="286" width="30" height="30" as="geometry" />
        </mxCell>
        <mxCell id="5uSCDXz5iFFyjT3ydSWA-118" value="" style="endArrow=none;html=1;rounded=0;fontFamily=Helvetica;fontSize=12;fontColor=default;exitX=0;exitY=0.5;exitDx=0;exitDy=0;exitPerimeter=0;" edge="1" parent="1" source="5uSCDXz5iFFyjT3ydSWA-63" target="5uSCDXz5iFFyjT3ydSWA-84">
          <mxGeometry width="50" height="50" relative="1" as="geometry">
            <mxPoint x="270" y="440" as="sourcePoint" />
            <mxPoint x="320" y="385" as="targetPoint" />
          </mxGeometry>
        </mxCell>
        <mxCell id="5uSCDXz5iFFyjT3ydSWA-124" value="&lt;b&gt;1&lt;/b&gt;" style="text;html=1;align=center;verticalAlign=middle;resizable=0;points=[];autosize=1;strokeColor=none;fillColor=none;" vertex="1" parent="1">
          <mxGeometry x="800" y="73.57" width="30" height="30" as="geometry" />
        </mxCell>
        <mxCell id="5uSCDXz5iFFyjT3ydSWA-125" value="&lt;b&gt;1&lt;/b&gt;" style="text;html=1;align=center;verticalAlign=middle;resizable=0;points=[];autosize=1;strokeColor=none;fillColor=none;" vertex="1" parent="1">
          <mxGeometry x="470" y="68.5" width="30" height="30" as="geometry" />
        </mxCell>
        <mxCell id="5uSCDXz5iFFyjT3ydSWA-126" value="" style="shape=partialRectangle;whiteSpace=wrap;html=1;top=0;left=1;right=0;fillColor=none;" vertex="1" parent="1">
          <mxGeometry x="190" y="35" width="80" height="16.64" as="geometry" />
        </mxCell>
        <mxCell id="5uSCDXz5iFFyjT3ydSWA-130" value="" style="edgeStyle=orthogonalEdgeStyle;rounded=0;orthogonalLoop=1;jettySize=auto;html=1;" edge="1" parent="1" source="5uSCDXz5iFFyjT3ydSWA-127" target="5uSCDXz5iFFyjT3ydSWA-129">
          <mxGeometry relative="1" as="geometry" />
        </mxCell>
        <mxCell id="5uSCDXz5iFFyjT3ydSWA-143" style="edgeStyle=orthogonalEdgeStyle;rounded=0;orthogonalLoop=1;jettySize=auto;html=1;exitX=0;exitY=1;exitDx=0;exitDy=0;entryX=1;entryY=0.5;entryDx=0;entryDy=0;" edge="1" parent="1" source="5uSCDXz5iFFyjT3ydSWA-127" target="5uSCDXz5iFFyjT3ydSWA-131">
          <mxGeometry relative="1" as="geometry" />
        </mxCell>
        <mxCell id="5uSCDXz5iFFyjT3ydSWA-144" style="edgeStyle=orthogonalEdgeStyle;rounded=0;orthogonalLoop=1;jettySize=auto;html=1;exitX=0;exitY=1;exitDx=0;exitDy=0;entryX=1;entryY=0.5;entryDx=0;entryDy=0;" edge="1" parent="1" source="5uSCDXz5iFFyjT3ydSWA-127" target="5uSCDXz5iFFyjT3ydSWA-132">
          <mxGeometry relative="1" as="geometry">
            <Array as="points">
              <mxPoint x="165" y="45" />
              <mxPoint x="140" y="45" />
              <mxPoint x="140" y="88" />
            </Array>
          </mxGeometry>
        </mxCell>
        <mxCell id="5uSCDXz5iFFyjT3ydSWA-127" value="&lt;b&gt;Address&lt;/b&gt;" style="ellipse;whiteSpace=wrap;html=1;align=center;" vertex="1" parent="1">
          <mxGeometry x="155" y="10" width="70" height="25" as="geometry" />
        </mxCell>
        <mxCell id="5uSCDXz5iFFyjT3ydSWA-129" value="&lt;b&gt;Street&lt;/b&gt;" style="ellipse;whiteSpace=wrap;html=1;align=center;" vertex="1" parent="1">
          <mxGeometry x="20" y="10" width="70" height="25" as="geometry" />
        </mxCell>
        <mxCell id="5uSCDXz5iFFyjT3ydSWA-131" value="&lt;b&gt;Home&lt;/b&gt;" style="ellipse;whiteSpace=wrap;html=1;align=center;" vertex="1" parent="1">
          <mxGeometry x="20" y="41.5" width="70" height="25" as="geometry" />
        </mxCell>
        <mxCell id="5uSCDXz5iFFyjT3ydSWA-132" value="&lt;b&gt;Gov.&lt;/b&gt;" style="ellipse;whiteSpace=wrap;html=1;align=center;" vertex="1" parent="1">
          <mxGeometry x="20" y="75.14" width="70" height="25" as="geometry" />
        </mxCell>
        <mxCell id="5uSCDXz5iFFyjT3ydSWA-145" value="&lt;b&gt;CGPA&lt;/b&gt;" style="ellipse;whiteSpace=wrap;html=1;align=center;fontStyle=4;" vertex="1" parent="1">
          <mxGeometry x="530" y="140.64" width="75" height="25" as="geometry" />
        </mxCell>
        <mxCell id="5uSCDXz5iFFyjT3ydSWA-147" value="&lt;b&gt;M&lt;/b&gt;" style="text;html=1;align=center;verticalAlign=middle;resizable=0;points=[];autosize=1;strokeColor=none;fillColor=none;fontSize=12;fontFamily=Helvetica;fontColor=default;" vertex="1" parent="1">
          <mxGeometry x="315" y="390.32" width="30" height="30" as="geometry" />
        </mxCell>
        <mxCell id="5uSCDXz5iFFyjT3ydSWA-152" style="edgeStyle=orthogonalEdgeStyle;rounded=0;orthogonalLoop=1;jettySize=auto;html=1;exitX=0;exitY=0;exitDx=0;exitDy=0;entryX=1;entryY=0.5;entryDx=0;entryDy=0;" edge="1" parent="1" source="5uSCDXz5iFFyjT3ydSWA-148" target="5uSCDXz5iFFyjT3ydSWA-150">
          <mxGeometry relative="1" as="geometry" />
        </mxCell>
        <mxCell id="5uSCDXz5iFFyjT3ydSWA-170" style="edgeStyle=orthogonalEdgeStyle;rounded=0;orthogonalLoop=1;jettySize=auto;html=1;exitX=0;exitY=0.5;exitDx=0;exitDy=0;entryX=1;entryY=0.5;entryDx=0;entryDy=0;" edge="1" parent="1" source="5uSCDXz5iFFyjT3ydSWA-148" target="5uSCDXz5iFFyjT3ydSWA-177">
          <mxGeometry relative="1" as="geometry">
            <mxPoint x="685" y="569.6800000000001" as="targetPoint" />
            <Array as="points">
              <mxPoint x="715" y="569.6800000000001" />
              <mxPoint x="681" y="569.6800000000001" />
            </Array>
          </mxGeometry>
        </mxCell>
        <mxCell id="5uSCDXz5iFFyjT3ydSWA-172" style="edgeStyle=orthogonalEdgeStyle;rounded=0;orthogonalLoop=1;jettySize=auto;html=1;exitX=0.25;exitY=1;exitDx=0;exitDy=0;entryX=1;entryY=0.5;entryDx=0;entryDy=0;" edge="1" parent="1" source="5uSCDXz5iFFyjT3ydSWA-148" target="5uSCDXz5iFFyjT3ydSWA-171">
          <mxGeometry relative="1" as="geometry" />
        </mxCell>
        <mxCell id="5uSCDXz5iFFyjT3ydSWA-174" style="edgeStyle=orthogonalEdgeStyle;rounded=0;orthogonalLoop=1;jettySize=auto;html=1;exitX=0;exitY=0.25;exitDx=0;exitDy=0;entryX=1;entryY=0.5;entryDx=0;entryDy=0;" edge="1" parent="1" source="5uSCDXz5iFFyjT3ydSWA-148" target="5uSCDXz5iFFyjT3ydSWA-178">
          <mxGeometry relative="1" as="geometry">
            <mxPoint x="685" y="549.6800000000001" as="targetPoint" />
          </mxGeometry>
        </mxCell>
        <mxCell id="5uSCDXz5iFFyjT3ydSWA-179" style="edgeStyle=orthogonalEdgeStyle;rounded=0;orthogonalLoop=1;jettySize=auto;html=1;exitX=1;exitY=0;exitDx=0;exitDy=0;entryX=0;entryY=0.5;entryDx=0;entryDy=0;" edge="1" parent="1" source="5uSCDXz5iFFyjT3ydSWA-148" target="5uSCDXz5iFFyjT3ydSWA-155">
          <mxGeometry relative="1" as="geometry" />
        </mxCell>
        <mxCell id="5uSCDXz5iFFyjT3ydSWA-148" value="&lt;h1&gt;&lt;b&gt;Final-Table&lt;/b&gt;&lt;/h1&gt;" style="rounded=1;arcSize=10;whiteSpace=wrap;html=1;align=center;labelBackgroundColor=none;fillColor=#EEEEEE;strokeColor=#FFFFFF;fontColor=#1A1A1A;" vertex="1" parent="1">
          <mxGeometry x="715" y="542.5" width="145" height="50" as="geometry" />
        </mxCell>
        <mxCell id="5uSCDXz5iFFyjT3ydSWA-150" value="&lt;b&gt;Date&lt;/b&gt;" style="ellipse;whiteSpace=wrap;html=1;align=center;fontStyle=4;" vertex="1" parent="1">
          <mxGeometry x="610" y="495" width="75" height="25" as="geometry" />
        </mxCell>
        <mxCell id="5uSCDXz5iFFyjT3ydSWA-155" value="&lt;b&gt;Arrange&lt;/b&gt;" style="shape=rhombus;perimeter=rhombusPerimeter;whiteSpace=wrap;html=1;align=center;" vertex="1" parent="1">
          <mxGeometry x="885" y="430.0000000000001" width="90" height="45" as="geometry" />
        </mxCell>
        <mxCell id="5uSCDXz5iFFyjT3ydSWA-167" value="&lt;b&gt;1&lt;/b&gt;" style="text;html=1;align=center;verticalAlign=middle;resizable=0;points=[];autosize=1;strokeColor=none;fillColor=none;" vertex="1" parent="1">
          <mxGeometry x="830" y="512.5" width="30" height="30" as="geometry" />
        </mxCell>
        <mxCell id="5uSCDXz5iFFyjT3ydSWA-171" value="&lt;b&gt;CrsName&lt;/b&gt;" style="ellipse;whiteSpace=wrap;html=1;align=center;" vertex="1" parent="1">
          <mxGeometry x="612.5" y="613.1800000000001" width="70" height="25" as="geometry" />
        </mxCell>
        <mxCell id="5uSCDXz5iFFyjT3ydSWA-177" value="&lt;b&gt;CrsCode&lt;/b&gt;" style="ellipse;whiteSpace=wrap;html=1;align=center;" vertex="1" parent="1">
          <mxGeometry x="611" y="571.1800000000001" width="70" height="25" as="geometry" />
        </mxCell>
        <mxCell id="5uSCDXz5iFFyjT3ydSWA-178" value="&lt;b&gt;Time&lt;/b&gt;" style="ellipse;whiteSpace=wrap;html=1;align=center;" vertex="1" parent="1">
          <mxGeometry x="613" y="530" width="70" height="25" as="geometry" />
        </mxCell>
        <mxCell id="5uSCDXz5iFFyjT3ydSWA-184" value="&lt;h1&gt;&lt;b&gt;Department&lt;/b&gt;&lt;/h1&gt;" style="rounded=1;arcSize=10;whiteSpace=wrap;html=1;align=center;labelBackgroundColor=none;fillColor=#EEEEEE;strokeColor=#FFFFFF;fontColor=#1A1A1A;" vertex="1" parent="1">
          <mxGeometry x="45" y="535" width="180" height="50" as="geometry" />
        </mxCell>
        <mxCell id="5uSCDXz5iFFyjT3ydSWA-190" value="&lt;b&gt;Works&lt;/b&gt;" style="shape=rhombus;perimeter=rhombusPerimeter;whiteSpace=wrap;html=1;align=center;" vertex="1" parent="1">
          <mxGeometry x="265.02" y="530" width="120" height="60" as="geometry" />
        </mxCell>
        <mxCell id="5uSCDXz5iFFyjT3ydSWA-193" value="&lt;b&gt;M&lt;/b&gt;" style="text;html=1;align=center;verticalAlign=middle;resizable=0;points=[];autosize=1;strokeColor=none;fillColor=none;fontSize=12;fontFamily=Helvetica;fontColor=default;" vertex="1" parent="1">
          <mxGeometry x="480" y="384.82" width="30" height="30" as="geometry" />
        </mxCell>
        <mxCell id="5uSCDXz5iFFyjT3ydSWA-195" value="&lt;b&gt;1&lt;/b&gt;" style="text;html=1;align=center;verticalAlign=middle;resizable=0;points=[];autosize=1;strokeColor=none;fillColor=none;fontSize=12;fontFamily=Helvetica;fontColor=default;" vertex="1" parent="1">
          <mxGeometry x="225" y="530" width="30" height="30" as="geometry" />
        </mxCell>
        <mxCell id="5uSCDXz5iFFyjT3ydSWA-201" style="edgeStyle=orthogonalEdgeStyle;rounded=0;orthogonalLoop=1;jettySize=auto;html=1;exitX=0.5;exitY=1;exitDx=0;exitDy=0;entryX=0;entryY=0.75;entryDx=0;entryDy=0;" edge="1" parent="1" source="5uSCDXz5iFFyjT3ydSWA-196" target="5uSCDXz5iFFyjT3ydSWA-184">
          <mxGeometry relative="1" as="geometry" />
        </mxCell>
        <mxCell id="5uSCDXz5iFFyjT3ydSWA-196" value="&lt;b&gt;D.name&lt;/b&gt;" style="ellipse;whiteSpace=wrap;html=1;align=center;" vertex="1" parent="1">
          <mxGeometry x="12.5" y="462.57" width="70" height="25" as="geometry" />
        </mxCell>
        <mxCell id="5uSCDXz5iFFyjT3ydSWA-202" style="edgeStyle=orthogonalEdgeStyle;rounded=0;orthogonalLoop=1;jettySize=auto;html=1;exitX=0.5;exitY=1;exitDx=0;exitDy=0;entryX=0.25;entryY=0;entryDx=0;entryDy=0;" edge="1" parent="1" source="5uSCDXz5iFFyjT3ydSWA-197" target="5uSCDXz5iFFyjT3ydSWA-184">
          <mxGeometry relative="1" as="geometry" />
        </mxCell>
        <mxCell id="5uSCDXz5iFFyjT3ydSWA-197" value="&lt;b&gt;DID&lt;/b&gt;" style="ellipse;whiteSpace=wrap;html=1;align=center;fontStyle=4;" vertex="1" parent="1">
          <mxGeometry x="90" y="462.57" width="75" height="25" as="geometry" />
        </mxCell>
        <mxCell id="5uSCDXz5iFFyjT3ydSWA-200" style="edgeStyle=orthogonalEdgeStyle;rounded=0;orthogonalLoop=1;jettySize=auto;html=1;entryX=1;entryY=1;entryDx=0;entryDy=0;" edge="1" parent="1" source="5uSCDXz5iFFyjT3ydSWA-199" target="5uSCDXz5iFFyjT3ydSWA-101">
          <mxGeometry relative="1" as="geometry" />
        </mxCell>
        <mxCell id="5uSCDXz5iFFyjT3ydSWA-199" value="&lt;b&gt;Creidt&lt;/b&gt;" style="ellipse;whiteSpace=wrap;html=1;align=center;" vertex="1" parent="1">
          <mxGeometry x="892.5" y="287" width="70" height="25" as="geometry" />
        </mxCell>
        <mxCell id="5uSCDXz5iFFyjT3ydSWA-205" value="&lt;b&gt;K&lt;/b&gt;" style="text;html=1;align=center;verticalAlign=middle;resizable=0;points=[];autosize=1;strokeColor=none;fillColor=none;fontSize=12;fontFamily=Helvetica;fontColor=default;" vertex="1" parent="1">
          <mxGeometry x="270" y="390.32" width="30" height="30" as="geometry" />
        </mxCell>
      </root>
    </mxGraphModel>
  </diagram>
</mxfile>
